<?xml version="1.0" encoding="iso-8859-1"?>
<!-- Generator: Adobe Illustrator 19.0.0, SVG Export Plug-In . SVG Version: 6.00 Build 0)  -->
<svg version="1.1" id="Layer_1" xmlns="http://www.w3.org/2000/svg" xmlns:xlink="http://www.w3.org/1999/xlink" x="0px" y="0px"
	 viewBox="0 0 511.998 511.998" style="enable-background:new 0 0 511.998 511.998;" xml:space="preserve">
<path d="M444.444,168.075c-3.836,0-7.597-1.56-10.309-4.274c-2.727-2.711-4.272-6.472-4.272-10.307s1.546-7.597,4.272-10.309
	c3.383-3.383,8.413-4.943,13.152-3.981c0.935,0.175,1.853,0.467,2.727,0.831c0.889,0.365,1.735,0.818,2.523,1.341
	c0.802,0.525,1.546,1.137,2.216,1.808c2.712,2.712,4.274,6.474,4.274,10.309s-1.56,7.597-4.274,10.307
	c-0.671,0.671-1.414,1.283-2.216,1.823c-0.787,0.525-1.633,0.977-2.523,1.341c-0.875,0.365-1.792,0.642-2.727,0.831
	C446.354,167.987,445.39,168.075,444.444,168.075z"/>
<path d="M400.698,138.914H186.537L393.23,45.825c7.343-3.308,10.613-11.939,7.308-19.283c-3.307-7.341-11.937-10.612-19.283-7.308
	l-265.733,119.68H51.867c-8.052,0-14.581,6.529-14.581,14.581c0,8.052,6.529,14.581,14.581,14.581h4.931
	c-2.474,3.985-2.983,9.088-0.913,13.689c2.432,5.399,7.744,8.597,13.304,8.597c2.001,0,4.036-0.416,5.98-1.29l46.618-20.995h278.911
	c8.052,0,14.581-6.529,14.581-14.581S408.751,138.914,400.698,138.914z"/>
<path d="M427.136,29.148c-0.962,0-1.912-0.089-2.858-0.277c-0.935-0.19-1.853-0.465-2.727-0.83
	c-0.876-0.365-1.735-0.818-2.522-1.341c-0.802-0.539-1.546-1.152-2.216-1.823c-2.712-2.712-4.274-6.474-4.274-10.309
	c0-0.948,0.102-1.912,0.292-2.843c0.19-0.932,0.467-1.852,0.831-2.727c0.365-0.888,0.817-1.734,1.341-2.521
	c0.525-0.802,1.137-1.547,1.808-2.218s1.414-1.283,2.216-1.808c0.787-0.523,1.648-0.977,2.523-1.341
	c0.875-0.365,1.792-0.64,2.727-0.83c4.739-0.962,9.768,0.598,13.165,3.979c0.671,0.671,1.269,1.416,1.808,2.218
	c0.525,0.787,0.977,1.633,1.341,2.521c0.365,0.876,0.642,1.793,0.831,2.727c0.19,0.933,0.276,1.896,0.276,2.843
	c0,3.835-1.546,7.597-4.258,10.309C434.717,27.588,430.971,29.148,427.136,29.148z"/>
<path style="fill:#E0315B;" d="M444.23,283.016H67.769c-13.301,0-24.083-10.783-24.083-24.083v-3.106
	c0-13.301,10.783-24.083,24.083-24.083h376.46c13.301,0,24.083,10.783,24.083,24.083v3.106
	C468.313,272.233,457.53,283.016,444.23,283.016z"/>
<path style="fill:#E4AAA9;" d="M308.34,449.785H203.659c-76.217,0-138.004-61.787-138.004-138.004v-28.765h380.689v28.765
	C446.344,387.999,384.557,449.785,308.34,449.785z"/>
<path style="fill:#E0315B;" d="M298.77,497.417h-85.542c-13.153,0-23.815-10.663-23.815-23.815l0,0
	c0-13.153,10.663-23.815,23.815-23.815h85.542c13.153,0,23.815,10.663,23.815,23.815l0,0
	C322.585,486.754,311.924,497.417,298.77,497.417z"/>
<path d="M444.231,217.163H67.769c-21.319,0-38.664,17.345-38.664,38.664v3.107c0,15.343,8.985,28.628,21.969,34.869v17.978
	c0,74.917,54.272,137.394,125.564,150.188c-1.169,3.671-1.807,7.578-1.807,11.633c0,21.173,17.224,38.396,38.397,38.396h85.54
	c21.173,0,38.397-17.224,38.397-38.396c0-4.053-0.636-7.961-1.807-11.633c71.292-12.792,125.564-75.271,125.564-150.188v-17.978
	c12.984-6.241,21.969-19.525,21.969-34.869v-3.107C482.894,234.508,465.55,217.163,444.231,217.163z M58.267,255.827
	c0-5.239,4.263-9.502,9.502-9.502h376.462c5.239,0,9.502,4.263,9.502,9.502v3.107c0,5.239-4.263,9.502-9.502,9.502H67.769
	c-5.239,0-9.502-4.263-9.502-9.502V255.827z M298.77,482.836h-85.54c-5.092,0-9.236-4.142-9.236-9.234
	c0-5.092,4.144-9.236,9.236-9.236h85.54c5.092,0,9.236,4.144,9.236,9.236C308.006,478.693,303.862,482.836,298.77,482.836z
	 M431.763,311.781c0,68.055-55.368,123.422-123.422,123.422h-9.569h-85.54h-9.569c-68.055,0-123.422-55.368-123.422-123.422v-14.184
	h351.525v14.184H431.763z"/>
<g>
</g>
<g>
</g>
<g>
</g>
<g>
</g>
<g>
</g>
<g>
</g>
<g>
</g>
<g>
</g>
<g>
</g>
<g>
</g>
<g>
</g>
<g>
</g>
<g>
</g>
<g>
</g>
<g>
</g>
</svg>
